<svg width="318" height="65" viewBox="0 0 318 65" fill="currentColor" xmlns="http://www.w3.org/2000/svg">
<path d="M207.097 30.8562V33.3882H304.346V30.8562H207.097Z"/>
<path d="M207.341 19.4219V21.9539H285.84V19.4219H207.341Z"/>
<path d="M207.341 42.2908V44.8228H285.84V42.2908H207.341Z"/>
<path d="M253.293 12.3425L251.507 14.1289L269.496 32.126L251.507 50.1157L253.293 51.9021L273.077 32.126L253.293 12.3425Z"/>
<path d="M232.166 12.3425L230.38 14.1289L248.369 32.126L230.38 50.1157L232.166 51.9021L251.95 32.126L232.166 12.3425Z"/>
<path d="M297.6 32.124L307.712 42.236L317.824 32.124L307.712 22.012L297.6 32.124Z"/>
<path d="M200.343 11.8257L180.043 32.1259L200.343 52.4261L220.643 32.1259L219.75 31.2327L200.343 11.8257ZM200.343 15.3985L217.07 32.1259L200.343 48.8459L183.615 32.1259L200.343 15.3985Z"/>
<path d="M196.279 32.1252L200.343 28.0598L204.408 32.1252L200.343 36.1892L196.279 32.1252ZM200.343 21.0679L189.287 32.1239L200.343 43.1799L211.399 32.1239L200.343 21.0679Z"/>
<path d="M13.6548 30.8562V33.3882H110.904V30.8562H13.6548Z"/>
<path d="M32.1612 19.4219V21.9539H110.66V19.4219H32.1612Z"/>
<path d="M32.1612 42.2908V44.8228H110.66V42.2908H32.1612Z"/>
<path d="M64.708 12.3425L44.9245 32.126L64.708 51.9021L66.4944 50.1157L48.5047 32.126L66.4944 14.1289L64.708 12.3425Z"/>
<path d="M85.835 12.3425L66.0515 32.126L85.835 51.9021L87.6214 50.1157L69.6243 32.126L87.6214 14.1289L85.835 12.3425Z"/>
<path d="M20.4003 32.124L10.2883 42.236L0.175724 32.124L10.2883 22.012L20.4003 32.124Z"/>
<path d="M117.658 11.8257L97.3581 32.1259L98.2513 33.0191L117.658 52.4261L137.958 32.1259L117.658 11.8257ZM117.658 15.3985L134.386 32.1259L117.658 48.8459L100.931 32.1259L117.658 15.3985Z"/>
<path d="M117.656 36.1892L113.592 32.1252L117.656 28.0598L121.722 32.1252L117.656 36.1892ZM106.602 32.1239L117.658 43.1799L128.714 32.1239L117.658 21.0679L106.602 32.1239Z"/>
<path d="M153.172 32.1253L159.002 26.2973L164.83 32.1253L159.002 37.9547L153.172 32.1253ZM159 16.272L143.148 32.124L159 47.976L174.852 32.124L159 16.272Z"/>
<path d="M158.997 0L126.878 32.126L158.997 64.2446L191.123 32.126L190.23 31.2328L158.997 0ZM159.004 3.57283L187.55 32.126L158.997 60.6718L130.451 32.126L159.004 3.57283Z"/>
</svg>
