<?xml version="1.0" encoding="UTF-8" standalone="no"?>
<svg
   xmlns:dc="http://purl.org/dc/elements/1.1/"
   xmlns:cc="http://creativecommons.org/ns#"
   xmlns:rdf="http://www.w3.org/1999/02/22-rdf-syntax-ns#"
   xmlns:svg="http://www.w3.org/2000/svg"
   xmlns="http://www.w3.org/2000/svg"
   xmlns:sodipodi="http://sodipodi.sourceforge.net/DTD/sodipodi-0.dtd"
   xmlns:inkscape="http://www.inkscape.org/namespaces/inkscape"
   width="411.52109"
   height="94.126854"
   viewBox="0 0 108.88162 24.904397"
   version="1.1"
   id="svg8"
   fill="currentColor"
   sodipodi:docname="llanas.svg"
   inkscape:version="1.0.2-2 (e86c870879, 2021-01-15)">
  <defs
     id="defs2" />
  <sodipodi:namedview
     id="base"
     pagecolor="#ffffff"
     bordercolor="#666666"
     borderopacity="1.0"
     inkscape:pageopacity="0.0"
     inkscape:pageshadow="2"
     inkscape:zoom="1.979899"
     inkscape:cx="176.84631"
     inkscape:cy="149.75516"
     inkscape:document-units="px"
     inkscape:current-layer="layer1"
     inkscape:document-rotation="0"
     showgrid="false"
     showborder="true"
     units="px"
     inkscape:showpageshadow="false"
     inkscape:window-width="2560"
     inkscape:window-height="1370"
     inkscape:window-x="2873"
     inkscape:window-y="-6"
     inkscape:window-maximized="1"
     inkscape:pagecheckerboard="true"
     fit-margin-top="0"
     fit-margin-left="0"
     fit-margin-right="0"
     fit-margin-bottom="0" />
  <metadata
     id="metadata5">
    <rdf:RDF>
      <cc:Work
         rdf:about="">
        <dc:format>image/svg+xml</dc:format>
        <dc:type
           rdf:resource="http://purl.org/dc/dcmitype/StillImage" />
        <dc:title></dc:title>
      </cc:Work>
    </rdf:RDF>
  </metadata>
  <g
     inkscape:label="Calque 1"
     inkscape:groupmode="layer"
     id="layer1">
    <g
       id="g202">
      <path
         d="m 104.04107,24.515655 c -0.17102,-0.04092 -0.28799,-0.13374 -0.36613,-0.290549 l -0.0758,-0.152065 6.7e-4,-2.007452 c 6.4e-4,-1.88139 0.004,-2.015228 0.0569,-2.131216 0.0697,-0.153458 0.21398,-0.27795 0.37117,-0.320277 0.0799,-0.02151 0.82615,-0.02942 2.24175,-0.02377 2.11726,0.0084 2.12231,0.0086 2.24742,0.07556 0.14854,0.07949 0.30841,0.252791 0.34117,0.369841 0.0129,0.04601 0.0234,0.965974 0.0234,2.044366 v 1.960713 l -0.0784,0.152279 c -0.0843,0.163818 -0.21587,0.271103 -0.39268,0.320216 -0.1285,0.03569 -4.22096,0.0379 -4.36952,0.0024 z"
         id="path221" />
      <path
         d="m 42.383637,24.510755 c -0.38392,-0.06322 -0.66594,-0.30281 -0.78577,-0.667567 -0.0542,-0.164973 -0.0564,-0.502626 -0.0564,-8.776656 V 6.4614491 l 0.0815,-0.173789 c 0.10388,-0.221594 0.30389,-0.438739 0.49186,-0.533986 0.23577,-0.119473 0.51703,-0.138726 1.87725,-0.128495 l 1.25628,0.0094 0.20517,0.10105 c 0.40155,0.197764 0.56094,0.503888 0.82872,1.591586 l 0.18299,0.743316 0.1061,-0.17679 c 0.71647,-1.19391 2.45377,-2.173935 4.38676,-2.474613 0.43174,-0.06716 1.68914,-0.09498 2.14844,-0.04754 1.55145,0.160262 2.86928,0.777455 3.9831,1.865447 1.1755,1.148255 1.9283,2.675069 2.24326,4.5497579 0.14099,0.839174 0.14313,0.9464 0.13283,6.663538 l -0.01,5.404972 -0.0797,0.168427 c -0.10069,0.212898 -0.21272,0.324923 -0.42562,0.425618 l -0.16842,0.07966 -1.92926,0.0093 c -2.10131,0.01012 -2.31374,-0.0013 -2.58587,-0.139317 -0.19048,-0.09659 -0.28584,-0.244522 -0.33836,-0.524898 -0.02,-0.106687 -0.031,-1.961686 -0.0313,-5.251856 -3.7e-4,-4.840268 -0.003,-5.100295 -0.0574,-5.363056 -0.14948,-0.72426 -0.63485,-1.450045 -1.3038,-1.949648 -0.3177,-0.237271 -0.83856,-0.491179 -1.22605,-0.597677 -0.2723,-0.07484 -0.35711,-0.08404 -0.76557,-0.08303 -0.41001,10e-4 -0.4883,0.01001 -0.72881,0.08374 -0.59479,0.182329 -1.05618,0.4654 -1.5249,0.935547 -0.51324,0.514807 -0.75602,0.916239 -0.95616,1.580983 -0.0642,0.21336 -0.0646,0.238502 -0.081,5.374349 -0.0152,4.757941 -0.0205,5.170069 -0.0684,5.289358 -0.11694,0.291164 -0.27309,0.445459 -0.57418,0.567357 -0.16966,0.06869 -0.17463,0.06886 -2.11463,0.07356 -1.06951,0.0026 -2.02035,-0.0078 -2.11299,-0.02302 z"
         id="path219" />
      <path
         d="m 9.9538067,24.502555 c -0.39315,-0.08866 -0.59864,-0.319938 -0.67302,-0.757489 -0.0237,-0.139332 -0.0308,-3.486027 -0.0246,-11.587697 l 0.009,-11.39178293 0.0733,-0.181929 c 0.0973,-0.241453 0.30449,-0.448671 0.52565,-0.525648 C 10.021197,0.00334907 10.147827,9.0651259e-6 12.067207,9.0651259e-6 h 2.03644 L 14.276407,0.08484907 c 0.21808,0.107098 0.40231,0.305858 0.52653,0.568055 l 0.0969,0.20455 V 12.27986 c 0,11.164158 -10e-4,11.426206 -0.0585,11.590529 -0.0797,0.229208 -0.33463,0.484093 -0.58482,0.584818 l -0.18351,0.07388 -1.97519,0.0057 c -1.47885,0.0043 -2.01751,-0.0038 -2.1436103,-0.03226 z"
         id="path217" />
      <path
         d="m 0.76688674,24.514425 c -0.44145,-0.07698 -0.6615,-0.328637 -0.73227,-0.837436 -0.0448,-0.32222 -0.0468,-22.5149159 -0.002,-22.80422693 0.0461,-0.298281 0.19608,-0.574756 0.37758,-0.696259 0.26855,-0.179779 0.22323,-0.1764990048741 2.43909996,-0.1764990048741 h 2.03644 L 5.0394567,0.08116407 c 0.18906,0.09981 0.40961,0.330929 0.52507,0.550205 l 0.0868,0.164838 0.008,11.42166793 c 0.009,12.600708 0.0245,11.575108 -0.18364,11.886091 -0.10158,0.151808 -0.32919,0.313547 -0.5434,0.386151 -0.12529,0.04246 -3.93360996,0.06469 -4.16515996,0.02431 z"
         id="path215" />
      <path
         id="path211"
         d="M 272.65039 20.107422 C 268.59092 20.110032 264.22979 20.830771 260.36328 22.214844 C 258.28447 22.958999 254.54329 24.83435 252.66797 26.070312 C 246.33397 30.244884 241.60139 36.093418 238.73828 43.287109 C 237.1177 47.35887 236.37328 51.179475 236.26367 55.988281 C 236.14949 61.003975 236.74526 65.098572 238.20703 69.337891 C 243.03783 83.347798 255.55974 92.936021 270.375 93.96875 C 271.69145 94.060517 275.44089 93.932931 276.45312 93.761719 C 281.43995 92.918177 286.45021 90.362347 290.44336 86.626953 L 291.1875 85.929688 L 291.36328 86.484375 C 291.46007 86.788657 291.67915 87.504125 291.84961 88.076172 C 292.80844 91.297853 293.59756 92.341714 295.30273 92.638672 C 296.25748 92.804933 307.53486 92.809999 308.55469 92.644531 C 308.96023 92.57873 309.50194 92.417692 309.75781 92.287109 C 310.47127 91.923152 311.29296 91.087727 311.5957 90.417969 L 311.86914 89.814453 L 311.86914 56.828125 L 311.86914 23.841797 L 311.61328 23.291016 C 311.32279 22.661966 310.37305 21.683205 309.73828 21.359375 C 309.00483 20.985183 307.69334 20.891422 303.26562 20.892578 C 298.43675 20.893576 297.27786 20.980594 296.65234 21.394531 C 295.91647 21.88152 295.26791 23.334625 293.88086 27.589844 L 292.99805 30.294922 L 292.36719 29.441406 C 291.55493 28.341571 289.44307 26.166958 288.25781 25.210938 C 285.88729 23.298878 282.66806 21.717548 279.46094 20.890625 C 277.41472 20.363029 275.08607 20.105856 272.65039 20.107422 z M 272.89062 39.087891 C 273.34006 39.092541 273.79442 39.114926 274.25195 39.15625 C 277.32845 39.434121 279.89545 40.335783 282.4707 42.042969 C 288.5692 46.085816 291.63371 53.714776 290.05859 60.931641 C 288.56322 67.78318 283.35289 72.882429 276.33594 74.361328 L 276.33398 74.361328 C 275.20126 74.600005 271.96581 74.767214 270.95312 74.638672 C 267.15897 74.157134 264.05957 72.68157 261.51172 70.142578 C 259.84635 68.483006 258.69076 66.690756 257.80469 64.396484 C 256.05356 59.858141 256.05612 54.256913 257.8125 49.708984 C 260.39267 43.028171 266.14914 39.018134 272.89062 39.087891 z "
         transform="scale(0.26458333)" />
      <path
         id="path207"
         d="M 104.70312 20.103516 C 104.18101 20.096286 103.65269 20.104541 103.12109 20.125 C 95.909869 20.402546 89.693329 22.401743 83.800781 26.337891 C 78.792907 29.683075 74.59932 34.434012 71.802734 39.931641 C 69.715301 44.035149 68.555046 47.820866 67.984375 52.382812 C 67.714252 54.542605 67.712942 59.487172 67.982422 61.621094 C 69.083096 70.340898 72.79946 77.832976 79.011719 83.857422 C 82.894201 87.622489 87.220244 90.273657 92.388672 92.054688 C 95.064199 92.976681 98.471611 93.687807 101.27734 93.910156 C 103.07368 94.052493 105.41815 94.054913 106.69336 93.916016 C 112.08709 93.328492 117.35305 90.836106 121.83984 86.746094 L 122.73633 85.929688 L 123.2168 87.525391 C 124.26448 91.00612 124.71047 91.776107 126.04688 92.408203 L 126.68359 92.708984 L 132.93359 92.746094 C 139.65499 92.78672 140.5397 92.733165 141.39648 92.238281 C 142.20477 91.77143 142.88954 91.016741 143.16016 90.292969 L 143.4082 89.632812 L 143.4082 56.845703 C 143.4082 19.739821 143.51552 23.479577 142.4043 22.279297 C 141.16416 20.939636 140.61061 20.850831 133.94141 20.914062 C 129.66907 20.954579 129.06026 20.98364 128.6543 21.162109 C 128.09402 21.408372 127.8302 21.636134 127.49609 22.164062 C 127.0718 22.834505 126.11508 25.324985 125.36133 27.720703 C 124.97075 28.962021 124.62594 30.04732 124.5957 30.132812 C 124.56282 30.225071 124.20248 29.848939 123.70898 29.207031 C 119.25987 23.419695 112.53488 20.211966 104.70312 20.103516 z M 104.30859 39.119141 C 105.43299 39.119925 106.57356 39.192624 107.35547 39.337891 C 110.93744 40.003352 114.05346 41.652609 116.67773 44.269531 C 119.2528 46.837422 120.87181 49.849925 121.66797 53.558594 C 122.01682 55.183341 122.04272 58.578915 121.7207 60.300781 C 120.68247 65.853663 117.3194 70.329959 112.28711 72.853516 C 111.05207 73.472855 108.92741 74.183136 107.58594 74.425781 C 106.37158 74.645447 103.17127 74.743911 102.09766 74.59375 C 95.077222 73.611885 89.917549 68.584076 88.427734 61.273438 C 87.021372 54.372383 89.254586 46.999103 93.986328 42.917969 C 96.170857 41.033836 98.497981 39.901979 101.35156 39.333984 C 102.07598 39.189739 103.18419 39.118356 104.30859 39.119141 z "
         transform="scale(0.26458333)" />
      <path
         d="m 91.610227,24.892253 c -1.21034,-0.12617 -2.13236,-0.351176 -3.01311,-0.735306 -0.64199,-0.279999 -1.32758,-0.691968 -1.84719,-1.109976 -0.46621,-0.375044 -1.07879,-1.045705 -1.26109,-1.38066 -0.17982,-0.33038 -0.21376,-0.76241 -0.083,-1.056049 0.0656,-0.147324 2.19871,-2.284539 2.39911,-2.403748 0.29674,-0.176521 0.56001,-0.07797 1.09008,0.408043 0.69123,0.633769 1.39303,1.041843 2.26599,1.317613 0.49698,0.156998 0.7289,0.182317 1.32193,0.144332 0.8677,-0.05558 1.35417,-0.202553 1.68036,-0.507663 0.2184,-0.204283 0.29141,-0.389963 0.28929,-0.735646 -0.002,-0.37071 -0.0824,-0.581863 -0.30518,-0.804679 -0.23898,-0.238983 -0.62801,-0.410882 -1.5726,-0.694877 -0.42949,-0.129129 -0.98759,-0.296897 -1.24024,-0.372821 -1.59787,-0.480197 -2.92473,-1.223995 -3.79725,-2.128625 -0.97675,-1.01269 -1.40699,-2.100222 -1.5004,-3.792569 -0.023,-0.417702 0.0216,-1.019975 0.1065,-1.4365989 0.43058,-2.112894 2.16293,-3.642758 4.73181,-4.178742 1.35409,-0.282525 3.03992,-0.25472 4.28891,0.07074 1.23869,0.322774 2.43594,1.039988 3.56967,2.13841 0.42336,0.410171 0.55725,0.588333 0.60604,0.806446 0.0625,0.279481 -0.0458,0.457852 -0.51261,0.844453 -0.60049,0.497248 -1.21122,1.0368319 -1.64956,1.4573979 -0.23905,0.229348 -0.47958,0.440243 -0.53452,0.468655 -0.0549,0.02841 -0.18557,0.05854 -0.29029,0.06694 -0.2798,0.02246 -0.50632,-0.09092 -0.80828,-0.404571 -0.42927,-0.445878 -0.80045,-0.677719 -1.32334,-0.826553 -1.0321,-0.2937759 -2.08545,-0.1834439 -2.48434,0.260223 -0.14658,0.163034 -0.20329,0.314829 -0.20329,0.544205 0,0.237102 0.0991,0.464926 0.27285,0.627479 0.28396,0.265609 0.68911,0.423845 1.57985,0.617031 1.13508,0.246179 3.05834,0.997614 3.9899,1.558892 0.80963,0.48781 1.44221,1.068873 1.88781,1.734065 0.60252,0.899436 0.854063,1.755933 0.894873,3.046995 0.0358,1.132004 -0.13835,2.029217 -0.557053,2.870151 -0.97115,1.950536 -2.92461,3.172152 -5.649,3.532662 -0.36661,0.04851 -2.02874,0.08707 -2.34267,0.05435 z"
         id="path69" />
    </g>
  </g>
</svg>
